<?xml version="1.0" standalone="no"?>
<!DOCTYPE svg PUBLIC "-//W3C//DTD SVG 20010904//EN"
 "http://www.w3.org/TR/2001/REC-SVG-20010904/DTD/svg10.dtd">
<svg version="1.0" xmlns="http://www.w3.org/2000/svg"
 width="238.000000pt" height="227.000000pt" viewBox="0 0 238.000000 227.000000"
 preserveAspectRatio="xMidYMid meet">

<g transform="translate(0.000000,227.000000) scale(0.100000,-0.100000)"
fill="#000000" stroke="none">
<path d="M1120 2249 c-81 -6 -118 -17 -140 -44 -12 -15 -12 -21 5 -49 10 -17
35 -62 55 -101 20 -38 52 -99 72 -135 20 -36 50 -99 66 -140 17 -41 53 -120
80 -175 27 -55 60 -129 73 -165 12 -36 26 -69 30 -75 17 -23 107 -213 119
-250 7 -22 34 -80 60 -130 27 -49 60 -126 76 -170 15 -44 33 -87 40 -95 7 -8
38 -71 69 -140 57 -127 74 -162 128 -260 17 -30 49 -99 72 -154 55 -137 54
-136 237 -129 81 3 145 10 142 14 -3 5 1 9 8 9 9 0 9 3 -2 10 -8 5 -79 10
-157 10 -102 0 -144 3 -150 13 -14 23 -973 2080 -973 2089 0 4 65 8 144 8
l143 0 43 -92 c54 -118 699 -1501 835 -1793 56 -120 109 -221 116 -223 12 -3
12 -2 0 6 -11 8 -11 10 0 15 11 4 11 6 1 6 -7 1 -10 6 -7 11 3 6 -1 13 -10 16
-13 6 -14 8 -3 15 10 7 11 9 0 9 -7 0 -10 5 -7 10 3 6 -1 13 -10 16 -13 6 -14
8 -3 15 10 7 11 9 0 9 -7 0 -10 5 -7 10 3 6 -1 13 -10 16 -13 6 -14 8 -3 15
10 7 11 9 0 9 -7 0 -10 5 -7 10 3 6 -1 13 -9 16 -9 3 -13 10 -10 15 3 5 -2 12
-11 15 -13 6 -14 8 -3 15 10 7 11 9 0 9 -7 0 -10 5 -7 10 3 6 -1 13 -10 16
-13 6 -14 8 -3 15 7 5 8 9 3 9 -6 0 -12 10 -12 22 -1 13 -7 24 -13 26 -5 2 -8
8 -4 13 3 5 -2 12 -11 15 -13 6 -14 8 -3 15 10 7 11 9 0 9 -7 0 -10 5 -7 10 3
6 -1 13 -9 16 -9 3 -13 10 -10 15 3 5 -2 12 -11 15 -13 6 -14 8 -3 15 10 7 11
9 0 9 -7 0 -10 5 -7 10 3 6 -1 13 -9 16 -9 3 -13 10 -10 15 3 5 -2 12 -11 15
-13 6 -14 8 -3 15 10 7 11 9 0 9 -7 0 -10 5 -7 10 3 6 -1 13 -10 16 -13 6 -14
8 -3 15 10 7 11 9 0 9 -7 0 -10 5 -7 10 3 6 0 13 -9 16 -8 3 -13 14 -11 25 2
11 -2 22 -10 26 -8 3 -12 9 -9 14 3 5 -2 12 -11 15 -13 6 -14 8 -3 15 10 7 11
9 0 9 -7 0 -10 5 -7 10 3 6 -1 13 -9 16 -9 3 -13 10 -10 15 3 5 -2 12 -11 15
-13 6 -14 8 -3 15 10 7 11 9 0 9 -7 0 -10 5 -7 10 3 6 -1 13 -9 16 -9 3 -13
10 -10 15 3 5 -2 12 -11 15 -13 6 -14 8 -3 15 10 7 11 9 0 9 -7 0 -10 5 -7 10
3 6 0 13 -9 16 -8 3 -13 14 -11 25 2 11 -2 22 -10 26 -8 3 -12 9 -9 14 3 5 -2
12 -11 15 -13 6 -14 8 -3 15 10 7 11 9 0 9 -7 0 -10 5 -7 10 3 6 -1 13 -9 16
-9 3 -13 10 -10 15 3 5 -1 12 -10 15 -8 3 -13 14 -11 25 2 11 -2 22 -10 26 -8
3 -12 9 -9 14 3 5 -2 12 -11 15 -13 6 -14 8 -3 15 10 7 11 9 0 9 -7 0 -10 5
-7 10 3 6 -1 13 -10 16 -13 6 -14 8 -3 15 10 7 11 9 0 9 -7 0 -10 5 -7 10 3 6
-1 13 -10 16 -13 6 -14 8 -3 15 7 5 8 9 3 9 -6 0 -12 10 -12 22 -1 13 -7 24
-13 26 -5 2 -8 8 -4 13 3 5 -2 12 -11 15 -13 6 -14 8 -3 15 10 7 11 9 0 9 -7
0 -10 5 -7 10 3 6 0 12 -7 15 -8 3 -15 15 -15 28 -1 12 -7 23 -13 25 -5 2 -8
8 -4 13 3 5 -2 12 -10 15 -9 3 -13 10 -10 15 3 5 -2 12 -11 15 -13 6 -14 8 -3
15 10 7 11 9 0 9 -7 0 -10 5 -7 10 3 6 0 13 -9 16 -8 3 -13 14 -11 25 2 11 -2
22 -10 25 -7 3 -12 14 -10 25 2 12 -3 23 -11 26 -13 5 -13 7 -2 14 10 7 11 9
0 9 -7 0 -10 5 -7 10 3 6 -1 13 -9 16 -9 3 -13 10 -10 15 3 5 -2 12 -10 15 -9
3 -13 10 -10 15 3 5 -2 12 -11 15 -13 6 -14 8 -3 15 10 7 11 9 0 9 -7 0 -10 5
-7 10 3 6 -1 13 -10 16 -13 6 -14 8 -3 15 10 7 11 9 0 9 -7 0 -10 5 -7 10 3 6
0 13 -9 16 -8 3 -13 14 -11 25 2 12 -3 23 -11 26 -13 5 -13 7 -2 14 10 7 11 9
0 9 -7 0 -10 5 -7 10 3 6 0 12 -7 15 -8 3 -15 15 -15 28 -1 12 -7 23 -13 25
-5 2 -8 8 -4 13 3 5 -2 12 -10 15 -9 3 -13 10 -10 15 3 5 -2 12 -11 15 -13 6
-14 8 -3 15 9 6 9 9 1 9 -7 0 -20 8 -30 19 -21 22 -90 29 -203 20z"/>
<path d="M799 1423 c-57 -3 -81 -8 -92 -21 -17 -19 -107 -215 -107 -233 0 -6
-34 -80 -75 -164 -41 -84 -75 -156 -75 -159 0 -9 -38 -94 -95 -211 -24 -49
-67 -142 -96 -205 -28 -63 -61 -128 -74 -145 -12 -16 -30 -50 -39 -74 -10 -25
-26 -57 -36 -71 -27 -38 -33 -72 -17 -94 15 -20 25 -21 212 -13 132 5 130 5
121 14 -3 4 4 13 16 20 14 7 17 12 9 13 -11 0 -9 4 5 15 10 8 15 15 9 15 -5 0
-3 5 5 10 13 9 13 10 0 10 -9 1 -5 6 10 15 15 9 19 15 10 15 -12 0 -11 3 3 11
9 6 15 14 12 20 -4 5 0 9 7 9 11 0 10 2 0 9 -11 7 -10 9 3 15 9 3 14 10 11 15
-3 5 1 12 10 15 8 3 12 10 9 16 -3 5 0 10 7 10 11 0 10 2 0 9 -11 7 -10 9 3
15 9 3 14 10 11 15 -3 5 1 12 10 15 8 3 12 10 9 16 -3 5 0 10 7 10 10 0 10 2
-1 9 -11 7 -9 10 9 16 15 5 19 10 10 15 -8 5 -7 9 5 14 9 3 14 10 11 15 -3 5
1 12 10 15 8 3 13 10 10 15 -4 5 -1 11 4 13 6 2 12 13 13 25 0 13 7 25 14 27
6 3 10 14 8 26 -2 11 1 20 8 20 8 0 8 3 -1 9 -11 7 -10 9 3 15 9 3 14 10 11
15 -3 5 1 12 10 15 8 3 12 10 9 16 -3 5 0 10 7 10 11 0 10 2 0 9 -11 7 -10 9
3 15 9 3 14 10 11 15 -3 5 1 12 10 15 8 3 12 10 9 16 -3 5 0 10 7 10 11 0 10
2 0 9 -11 7 -10 9 3 15 9 3 14 10 11 15 -3 5 1 12 10 15 8 3 12 10 9 16 -3 5
0 10 7 10 11 0 10 2 0 9 -11 7 -10 9 3 15 9 3 14 10 11 15 -3 5 0 11 8 14 8 3
13 14 12 24 -2 10 0 20 4 23 5 3 10 14 12 25 1 11 8 23 13 27 6 5 4 8 -5 8 -9
1 -5 6 10 15 14 8 19 14 11 15 -11 0 -9 4 5 15 10 8 15 15 9 15 -5 0 -4 4 3 9
7 4 14 17 15 29 0 12 7 24 15 27 7 3 10 9 7 15 -3 5 0 10 7 10 11 0 10 2 0 9
-11 7 -10 9 3 15 9 3 14 10 11 15 -3 5 1 12 10 15 8 3 12 10 9 16 -3 5 0 10 7
10 11 0 10 2 0 9 -11 7 -10 9 3 15 9 3 13 10 10 16 -3 5 0 10 7 10 11 0 10 2
0 9 -11 7 -10 9 3 15 9 3 14 10 11 15 -3 5 1 12 10 15 8 3 12 10 9 16 -3 5 0
10 7 10 11 0 10 2 0 9 -11 7 -11 9 1 14 18 7 16 55 -3 67 -14 9 -86 10 -251 3z
m228 -30 c-2 -5 -138 -296 -302 -648 -164 -352 -302 -646 -308 -652 -7 -9 -49
-13 -148 -13 -77 0 -139 3 -139 6 0 3 73 162 161 352 304 652 441 947 446 955
6 9 295 9 290 0z"/>
<path d="M1076 908 c-28 -4 -58 -16 -71 -28 -30 -28 -75 -113 -118 -225 -35
-89 -80 -186 -117 -255 -10 -19 -38 -78 -62 -130 -23 -52 -53 -111 -65 -130
-31 -47 -31 -98 0 -105 33 -8 300 0 315 9 7 4 10 11 7 16 -3 4 2 11 11 14 8 3
12 10 9 16 -3 5 0 10 7 10 11 0 10 2 0 9 -11 7 -10 9 3 15 9 3 13 10 10 16 -3
5 0 10 7 10 11 0 10 2 0 9 -11 7 -10 9 3 15 9 3 13 10 10 16 -3 5 0 10 7 10
11 0 10 2 0 9 -11 7 -10 9 3 15 9 3 14 10 11 15 -4 5 -1 11 4 13 6 2 12 13 13
25 0 13 7 25 15 28 7 3 11 9 8 14 -3 5 1 11 9 14 8 4 12 15 10 26 -2 11 3 22
11 25 9 3 12 10 9 16 -3 5 0 10 7 10 11 0 10 2 0 9 -11 7 -10 9 3 15 9 3 14
10 11 15 -3 5 1 12 10 15 8 3 12 10 9 16 -3 5 0 10 7 10 11 0 10 2 0 9 -11 7
-10 9 3 15 9 3 13 10 10 16 -3 5 0 10 7 10 11 0 10 2 0 9 -11 7 -10 9 3 15 9
3 14 10 11 15 -3 5 1 12 10 15 8 3 13 10 10 15 -3 5 1 12 10 15 8 3 13 10 10
15 -4 5 -1 11 4 13 6 2 12 13 13 25 0 13 7 25 15 28 7 3 10 9 7 15 -3 5 0 10
7 10 11 0 10 2 0 9 -11 7 -10 9 3 15 9 3 14 10 11 15 -3 5 1 12 10 15 8 3 12
10 9 16 -3 5 0 10 7 10 9 0 9 3 -2 10 -13 9 -13 10 0 10 12 0 13 2 1 9 -10 7
-11 9 -1 13 22 7 20 37 -3 50 -24 14 -174 17 -251 6z m220 -45 c-4 -10 -86
-190 -184 -400 l-177 -383 -144 0 c-111 0 -142 3 -138 12 3 7 76 164 162 348
87 184 168 359 181 388 l24 52 141 0 c130 0 141 -1 135 -17z"/>
</g>
</svg>
